<?xml version="1.0" encoding="UTF-8" standalone="no"?>
<!DOCTYPE svg PUBLIC "-//W3C//DTD SVG 1.1//EN"
 "http://www.w3.org/Graphics/SVG/1.1/DTD/svg11.dtd">
<!-- Generated by graphviz version 2.38.0 (20140413.2041)
 -->
<!-- Title: Dependencies Pages: 1 -->
<svg width="398pt" height="404pt"
 viewBox="0.00 0.00 398.00 404.00" xmlns="http://www.w3.org/2000/svg" xmlns:xlink="http://www.w3.org/1999/xlink">
<g id="graph0" class="graph" transform="scale(1 1) rotate(0) translate(4 400)">
<title>Dependencies</title>
<polygon fill="white" stroke="none" points="-4,4 -4,-400 394,-400 394,4 -4,4"/>
<!-- postgres -->
<g id="node1" class="node"><title>postgres</title>
<path fill="#1e88e5" stroke="#0d47a1" d="M90,-180C90,-180 12,-180 12,-180 6,-180 7.10543e-15,-174 7.10543e-15,-168 7.10543e-15,-168 7.10543e-15,-156 7.10543e-15,-156 7.10543e-15,-150 6,-144 12,-144 12,-144 90,-144 90,-144 96,-144 102,-150 102,-156 102,-156 102,-168 102,-168 102,-174 96,-180 90,-180"/>
<text text-anchor="middle" x="51" y="-158.9" font-family="Arial" font-size="12.00" fill="white">unicnet.postgres</text>
</g>
<!-- keycloak -->
<g id="node2" class="node"><title>keycloak</title>
<path fill="#fb8c00" stroke="#e65100" d="M123,-108C123,-108 45,-108 45,-108 39,-108 33,-102 33,-96 33,-96 33,-84 33,-84 33,-78 39,-72 45,-72 45,-72 123,-72 123,-72 129,-72 135,-78 135,-84 135,-84 135,-96 135,-96 135,-102 129,-108 123,-108"/>
<text text-anchor="middle" x="84" y="-86.9" font-family="Arial" font-size="12.00" fill="white">unicnet.keycloak</text>
</g>
<!-- postgres&#45;&gt;keycloak -->
<g id="edge1" class="edge"><title>postgres&#45;&gt;keycloak</title>
<path fill="none" stroke="black" stroke-width="2" d="M59.1573,-143.697C62.9138,-135.728 67.4531,-126.1 71.6183,-117.264"/>
<polygon fill="black" stroke="black" stroke-width="2" points="74.8381,-118.642 75.9365,-108.104 68.5064,-115.657 74.8381,-118.642"/>
</g>
<!-- frontend -->
<g id="node8" class="node"><title>frontend</title>
<path fill="#d81b60" stroke="#880e4f" d="M198,-36C198,-36 124,-36 124,-36 118,-36 112,-30 112,-24 112,-24 112,-12 112,-12 112,-6 118,-0 124,-0 124,-0 198,-0 198,-0 204,-0 210,-6 210,-12 210,-12 210,-24 210,-24 210,-30 204,-36 198,-36"/>
<text text-anchor="middle" x="161" y="-14.9" font-family="Arial" font-size="12.00" fill="white">unicnet.frontend</text>
</g>
<!-- keycloak&#45;&gt;frontend -->
<g id="edge7" class="edge"><title>keycloak&#45;&gt;frontend</title>
<path fill="none" stroke="black" stroke-width="2" d="M103.034,-71.6966C112.545,-63.0503 124.207,-52.4486 134.57,-43.027"/>
<polygon fill="black" stroke="black" stroke-width="2" points="137.14,-45.4209 142.185,-36.1043 132.431,-40.2413 137.14,-45.4209"/>
</g>
<!-- vault -->
<g id="node3" class="node"><title>vault</title>
<path fill="#7b1fa2" stroke="#4a148c" d="M236,-252C236,-252 180,-252 180,-252 174,-252 168,-246 168,-240 168,-240 168,-228 168,-228 168,-222 174,-216 180,-216 180,-216 236,-216 236,-216 242,-216 248,-222 248,-228 248,-228 248,-240 248,-240 248,-246 242,-252 236,-252"/>
<text text-anchor="middle" x="208" y="-230.9" font-family="Arial" font-size="12.00" fill="white">unicnet.vault</text>
</g>
<!-- backend -->
<g id="node4" class="node"><title>backend</title>
<path fill="#e53935" stroke="#b71c1c" d="M276.5,-108C276.5,-108 199.5,-108 199.5,-108 193.5,-108 187.5,-102 187.5,-96 187.5,-96 187.5,-84 187.5,-84 187.5,-78 193.5,-72 199.5,-72 199.5,-72 276.5,-72 276.5,-72 282.5,-72 288.5,-78 288.5,-84 288.5,-84 288.5,-96 288.5,-96 288.5,-102 282.5,-108 276.5,-108"/>
<text text-anchor="middle" x="238" y="-86.9" font-family="Arial" font-size="12.00" fill="white">unicnet.backend</text>
</g>
<!-- vault&#45;&gt;backend -->
<g id="edge2" class="edge"><title>vault&#45;&gt;backend</title>
<path fill="none" stroke="black" stroke-width="2" d="M211.619,-215.871C216.754,-191.564 226.207,-146.819 232.293,-118.013"/>
<polygon fill="black" stroke="black" stroke-width="2" points="235.726,-118.697 234.368,-108.189 228.877,-117.25 235.726,-118.697"/>
</g>
<!-- syslog -->
<g id="node6" class="node"><title>syslog</title>
<path fill="#616161" stroke="#212121" d="M197.5,-180C197.5,-180 132.5,-180 132.5,-180 126.5,-180 120.5,-174 120.5,-168 120.5,-168 120.5,-156 120.5,-156 120.5,-150 126.5,-144 132.5,-144 132.5,-144 197.5,-144 197.5,-144 203.5,-144 209.5,-150 209.5,-156 209.5,-156 209.5,-168 209.5,-168 209.5,-174 203.5,-180 197.5,-180"/>
<text text-anchor="middle" x="165" y="-158.9" font-family="Arial" font-size="12.00" fill="white">unicnet.syslog</text>
</g>
<!-- vault&#45;&gt;syslog -->
<g id="edge12" class="edge"><title>vault&#45;&gt;syslog</title>
<path fill="none" stroke="black" stroke-width="2" d="M197.371,-215.697C192.372,-207.559 186.309,-197.689 180.788,-188.701"/>
<polygon fill="black" stroke="black" stroke-width="2" points="183.723,-186.793 175.507,-180.104 177.759,-190.457 183.723,-186.793"/>
</g>
<!-- backend&#45;&gt;frontend -->
<g id="edge6" class="edge"><title>backend&#45;&gt;frontend</title>
<path fill="none" stroke="black" stroke-width="2" d="M218.966,-71.6966C209.455,-63.0503 197.793,-52.4486 187.43,-43.027"/>
<polygon fill="black" stroke="black" stroke-width="2" points="189.569,-40.2413 179.815,-36.1043 184.86,-45.4209 189.569,-40.2413"/>
</g>
<!-- router -->
<g id="node5" class="node"><title>router</title>
<path fill="#00897b" stroke="#004d40" d="M378,-180C378,-180 316,-180 316,-180 310,-180 304,-174 304,-168 304,-168 304,-156 304,-156 304,-150 310,-144 316,-144 316,-144 378,-144 378,-144 384,-144 390,-150 390,-156 390,-156 390,-168 390,-168 390,-174 384,-180 378,-180"/>
<text text-anchor="middle" x="347" y="-158.9" font-family="Arial" font-size="12.00" fill="white">unicnet.router</text>
</g>
<!-- router&#45;&gt;backend -->
<g id="edge3" class="edge"><title>router&#45;&gt;backend</title>
<path fill="none" stroke="black" stroke-width="2" d="M320.336,-143.876C306.216,-134.808 288.689,-123.552 273.439,-113.759"/>
<polygon fill="black" stroke="black" stroke-width="2" points="275.073,-110.648 264.767,-108.19 271.29,-116.538 275.073,-110.648"/>
</g>
<!-- syslog&#45;&gt;backend -->
<g id="edge4" class="edge"><title>syslog&#45;&gt;backend</title>
<path fill="none" stroke="black" stroke-width="2" d="M183.045,-143.697C192.062,-135.05 203.118,-124.449 212.943,-115.027"/>
<polygon fill="black" stroke="black" stroke-width="2" points="215.367,-117.552 220.163,-108.104 210.522,-112.499 215.367,-117.552"/>
</g>
<!-- logger -->
<g id="node7" class="node"><title>logger</title>
<path fill="#616161" stroke="#212121" d="M295.5,-324C295.5,-324 230.5,-324 230.5,-324 224.5,-324 218.5,-318 218.5,-312 218.5,-312 218.5,-300 218.5,-300 218.5,-294 224.5,-288 230.5,-288 230.5,-288 295.5,-288 295.5,-288 301.5,-288 307.5,-294 307.5,-300 307.5,-300 307.5,-312 307.5,-312 307.5,-318 301.5,-324 295.5,-324"/>
<text text-anchor="middle" x="263" y="-302.9" font-family="Arial" font-size="12.00" fill="white">unicnet.logger</text>
</g>
<!-- logger&#45;&gt;vault -->
<g id="edge10" class="edge"><title>logger&#45;&gt;vault</title>
<path fill="none" stroke="black" stroke-width="2" d="M249.404,-287.697C242.877,-279.389 234.932,-269.277 227.753,-260.141"/>
<polygon fill="black" stroke="black" stroke-width="2" points="230.369,-257.805 221.439,-252.104 224.865,-262.13 230.369,-257.805"/>
</g>
<!-- logger&#45;&gt;backend -->
<g id="edge5" class="edge"><title>logger&#45;&gt;backend</title>
<path fill="none" stroke="black" stroke-width="2" d="M262.272,-287.901C261.408,-269.955 259.731,-240.939 257,-216 253.299,-182.206 247.122,-143.551 242.82,-118.286"/>
<polygon fill="black" stroke="black" stroke-width="2" points="246.251,-117.59 241.103,-108.331 239.353,-118.78 246.251,-117.59"/>
</g>
<!-- mongo -->
<g id="node9" class="node"><title>mongo</title>
<path fill="#43a047" stroke="#1b5e20" d="M224,-396C224,-396 156,-396 156,-396 150,-396 144,-390 144,-384 144,-384 144,-372 144,-372 144,-366 150,-360 156,-360 156,-360 224,-360 224,-360 230,-360 236,-366 236,-372 236,-372 236,-384 236,-384 236,-390 230,-396 224,-396"/>
<text text-anchor="middle" x="190" y="-374.9" font-family="Arial" font-size="12.00" fill="white">unicnet.mongo</text>
</g>
<!-- mongo&#45;&gt;vault -->
<g id="edge9" class="edge"><title>mongo&#45;&gt;vault</title>
<path fill="none" stroke="black" stroke-width="2" d="M192.171,-359.871C195.239,-335.67 200.875,-291.211 204.528,-262.393"/>
<polygon fill="black" stroke="black" stroke-width="2" points="208.036,-262.55 205.821,-252.189 201.091,-261.67 208.036,-262.55"/>
</g>
<!-- mongo&#45;&gt;syslog -->
<g id="edge11" class="edge"><title>mongo&#45;&gt;syslog</title>
<path fill="none" stroke="black" stroke-width="2" d="M184.336,-359.858C176.781,-336 163.798,-291.283 159,-252 157.06,-236.118 158.099,-231.975 159,-216 159.477,-207.549 160.378,-198.376 161.34,-190.074"/>
<polygon fill="black" stroke="black" stroke-width="2" points="164.814,-190.497 162.563,-180.144 157.867,-189.641 164.814,-190.497"/>
</g>
<!-- mongo&#45;&gt;logger -->
<g id="edge8" class="edge"><title>mongo&#45;&gt;logger</title>
<path fill="none" stroke="black" stroke-width="2" d="M208.045,-359.697C217.062,-351.05 228.118,-340.449 237.943,-331.027"/>
<polygon fill="black" stroke="black" stroke-width="2" points="240.367,-333.552 245.163,-324.104 235.522,-328.499 240.367,-333.552"/>
</g>
</g>
</svg>
