<?xml version="1.0" encoding="UTF-8" standalone="no"?>
<!DOCTYPE svg PUBLIC "-//W3C//DTD SVG 1.1//EN"
 "http://www.w3.org/Graphics/SVG/1.1/DTD/svg11.dtd">
<!-- Generated by graphviz version 2.38.0 (20140413.2041)
 -->
<!-- Title: Dependencies Pages: 1 -->
<svg width="403pt" height="404pt"
 viewBox="0.00 0.00 403.33 404.00" xmlns="http://www.w3.org/2000/svg" xmlns:xlink="http://www.w3.org/1999/xlink">
<g id="graph0" class="graph" transform="scale(1 1) rotate(0) translate(4 400)">
<title>Dependencies</title>
<polygon fill="white" stroke="none" points="-4,4 -4,-400 399.327,-400 399.327,4 -4,4"/>
<!-- postgres -->
<g id="node1" class="node"><title>postgres</title>
<path fill="#1e88e5" stroke="#0d47a1" d="M105.327,-252C105.327,-252 27.3268,-252 27.3268,-252 21.3268,-252 15.3268,-246 15.3268,-240 15.3268,-240 15.3268,-228 15.3268,-228 15.3268,-222 21.3268,-216 27.3268,-216 27.3268,-216 105.327,-216 105.327,-216 111.327,-216 117.327,-222 117.327,-228 117.327,-228 117.327,-240 117.327,-240 117.327,-246 111.327,-252 105.327,-252"/>
<text text-anchor="middle" x="66.3268" y="-230.9" font-family="Arial" font-size="12.00" fill="white">unicnet.postgres</text>
</g>
<!-- keycloak -->
<g id="node2" class="node"><title>keycloak</title>
<path fill="#fb8c00" stroke="#e65100" d="M133.327,-180C133.327,-180 55.3268,-180 55.3268,-180 49.3268,-180 43.3268,-174 43.3268,-168 43.3268,-168 43.3268,-156 43.3268,-156 43.3268,-150 49.3268,-144 55.3268,-144 55.3268,-144 133.327,-144 133.327,-144 139.327,-144 145.327,-150 145.327,-156 145.327,-156 145.327,-168 145.327,-168 145.327,-174 139.327,-180 133.327,-180"/>
<text text-anchor="middle" x="94.3268" y="-158.9" font-family="Arial" font-size="12.00" fill="white">unicnet.keycloak</text>
</g>
<!-- postgres&#45;&gt;keycloak -->
<g id="edge1" class="edge"><title>postgres&#45;&gt;keycloak</title>
<path fill="none" stroke="black" stroke-width="2" d="M73.2482,-215.697C76.4016,-207.813 80.2051,-198.304 83.7083,-189.546"/>
<polygon fill="black" stroke="black" stroke-width="2" points="87.0208,-190.689 87.4851,-180.104 80.5214,-188.089 87.0208,-190.689"/>
</g>
<!-- frontend -->
<g id="node7" class="node"><title>frontend</title>
<path fill="#d81b60" stroke="#880e4f" d="M223.327,-108C223.327,-108 149.327,-108 149.327,-108 143.327,-108 137.327,-102 137.327,-96 137.327,-96 137.327,-84 137.327,-84 137.327,-78 143.327,-72 149.327,-72 149.327,-72 223.327,-72 223.327,-72 229.327,-72 235.327,-78 235.327,-84 235.327,-84 235.327,-96 235.327,-96 235.327,-102 229.327,-108 223.327,-108"/>
<text text-anchor="middle" x="186.327" y="-86.9" font-family="Arial" font-size="12.00" fill="white">unicnet.frontend</text>
</g>
<!-- keycloak&#45;&gt;frontend -->
<g id="edge6" class="edge"><title>keycloak&#45;&gt;frontend</title>
<path fill="none" stroke="black" stroke-width="2" d="M117.068,-143.697C128.766,-134.796 143.188,-123.823 155.837,-114.199"/>
<polygon fill="black" stroke="black" stroke-width="2" points="158.008,-116.945 163.847,-108.104 153.769,-111.374 158.008,-116.945"/>
</g>
<!-- vault -->
<g id="node3" class="node"><title>vault</title>
<path fill="#7b1fa2" stroke="#4a148c" d="M280.327,-324C280.327,-324 224.327,-324 224.327,-324 218.327,-324 212.327,-318 212.327,-312 212.327,-312 212.327,-300 212.327,-300 212.327,-294 218.327,-288 224.327,-288 224.327,-288 280.327,-288 280.327,-288 286.327,-288 292.327,-294 292.327,-300 292.327,-300 292.327,-312 292.327,-312 292.327,-318 286.327,-324 280.327,-324"/>
<text text-anchor="middle" x="252.327" y="-302.9" font-family="Arial" font-size="12.00" fill="white">unicnet.vault</text>
</g>
<!-- backend -->
<g id="node4" class="node"><title>backend</title>
<path fill="#e53935" stroke="#b71c1c" d="M281.827,-180C281.827,-180 204.827,-180 204.827,-180 198.827,-180 192.827,-174 192.827,-168 192.827,-168 192.827,-156 192.827,-156 192.827,-150 198.827,-144 204.827,-144 204.827,-144 281.827,-144 281.827,-144 287.827,-144 293.827,-150 293.827,-156 293.827,-156 293.827,-168 293.827,-168 293.827,-174 287.827,-180 281.827,-180"/>
<text text-anchor="middle" x="243.327" y="-158.9" font-family="Arial" font-size="12.00" fill="white">unicnet.backend</text>
</g>
<!-- vault&#45;&gt;backend -->
<g id="edge2" class="edge"><title>vault&#45;&gt;backend</title>
<path fill="none" stroke="black" stroke-width="2" d="M251.241,-287.871C249.707,-263.67 246.889,-219.211 245.063,-190.393"/>
<polygon fill="black" stroke="black" stroke-width="2" points="248.542,-189.948 244.416,-180.189 241.556,-190.391 248.542,-189.948"/>
</g>
<!-- syslog -->
<g id="node6" class="node"><title>syslog</title>
<path fill="#616161" stroke="#212121" d="M354.827,-252C354.827,-252 289.827,-252 289.827,-252 283.827,-252 277.827,-246 277.827,-240 277.827,-240 277.827,-228 277.827,-228 277.827,-222 283.827,-216 289.827,-216 289.827,-216 354.827,-216 354.827,-216 360.827,-216 366.827,-222 366.827,-228 366.827,-228 366.827,-240 366.827,-240 366.827,-246 360.827,-252 354.827,-252"/>
<text text-anchor="middle" x="322.327" y="-230.9" font-family="Arial" font-size="12.00" fill="white">unicnet.syslog</text>
</g>
<!-- vault&#45;&gt;syslog -->
<g id="edge14" class="edge"><title>vault&#45;&gt;syslog</title>
<path fill="none" stroke="black" stroke-width="2" d="M269.63,-287.697C278.192,-279.135 288.671,-268.656 298.022,-259.304"/>
<polygon fill="black" stroke="black" stroke-width="2" points="300.626,-261.65 305.222,-252.104 295.677,-256.701 300.626,-261.65"/>
</g>
<!-- logger -->
<g id="node9" class="node"><title>logger</title>
<path fill="#616161" stroke="#212121" d="M295.827,-36C295.827,-36 230.827,-36 230.827,-36 224.827,-36 218.827,-30 218.827,-24 218.827,-24 218.827,-12 218.827,-12 218.827,-6 224.827,-0 230.827,-0 230.827,-0 295.827,-0 295.827,-0 301.827,-0 307.827,-6 307.827,-12 307.827,-12 307.827,-24 307.827,-24 307.827,-30 301.827,-36 295.827,-36"/>
<text text-anchor="middle" x="263.327" y="-14.9" font-family="Arial" font-size="12.00" fill="white">unicnet.logger</text>
</g>
<!-- vault&#45;&gt;logger -->
<g id="edge8" class="edge"><title>vault&#45;&gt;logger</title>
<path fill="none" stroke="black" stroke-width="2" d="M212.17,-302.307C149.195,-297.155 31.7496,-283.483 6.32682,-252 -16.0132,-224.334 29.5196,-150.403 34.3268,-144 77.8503,-86.0321 156.453,-51.6898 209.265,-34.0886"/>
<polygon fill="black" stroke="black" stroke-width="2" points="210.378,-37.4073 218.812,-30.995 208.22,-30.7482 210.378,-37.4073"/>
</g>
<!-- backend&#45;&gt;frontend -->
<g id="edge5" class="edge"><title>backend&#45;&gt;frontend</title>
<path fill="none" stroke="black" stroke-width="2" d="M229.237,-143.697C222.403,-135.305 214.07,-125.07 206.571,-115.861"/>
<polygon fill="black" stroke="black" stroke-width="2" points="209.283,-113.649 200.255,-108.104 203.855,-118.069 209.283,-113.649"/>
</g>
<!-- backend&#45;&gt;logger -->
<g id="edge10" class="edge"><title>backend&#45;&gt;logger</title>
<path fill="none" stroke="black" stroke-width="2" d="M245.739,-143.871C249.148,-119.67 255.41,-75.2108 259.469,-46.3932"/>
<polygon fill="black" stroke="black" stroke-width="2" points="262.977,-46.5797 260.906,-36.1893 256.045,-45.6034 262.977,-46.5797"/>
</g>
<!-- router -->
<g id="node5" class="node"><title>router</title>
<path fill="#00897b" stroke="#004d40" d="M209.327,-252C209.327,-252 147.327,-252 147.327,-252 141.327,-252 135.327,-246 135.327,-240 135.327,-240 135.327,-228 135.327,-228 135.327,-222 141.327,-216 147.327,-216 147.327,-216 209.327,-216 209.327,-216 215.327,-216 221.327,-222 221.327,-228 221.327,-228 221.327,-240 221.327,-240 221.327,-246 215.327,-252 209.327,-252"/>
<text text-anchor="middle" x="178.327" y="-230.9" font-family="Arial" font-size="12.00" fill="white">unicnet.router</text>
</g>
<!-- router&#45;&gt;backend -->
<g id="edge3" class="edge"><title>router&#45;&gt;backend</title>
<path fill="none" stroke="black" stroke-width="2" d="M194.394,-215.697C202.266,-207.22 211.882,-196.864 220.5,-187.583"/>
<polygon fill="black" stroke="black" stroke-width="2" points="223.204,-189.814 227.444,-180.104 218.075,-185.051 223.204,-189.814"/>
</g>
<!-- syslog&#45;&gt;backend -->
<g id="edge4" class="edge"><title>syslog&#45;&gt;backend</title>
<path fill="none" stroke="black" stroke-width="2" d="M302.799,-215.697C292.945,-206.965 280.841,-196.24 270.131,-186.75"/>
<polygon fill="black" stroke="black" stroke-width="2" points="272.436,-184.117 262.63,-180.104 267.794,-189.356 272.436,-184.117"/>
</g>
<!-- syslog&#45;&gt;logger -->
<g id="edge9" class="edge"><title>syslog&#45;&gt;logger</title>
<path fill="none" stroke="black" stroke-width="2" d="M318.903,-215.837C315.211,-197.839 308.965,-168.782 302.327,-144 293.176,-109.839 280.745,-71.0367 272.399,-45.8485"/>
<polygon fill="black" stroke="black" stroke-width="2" points="275.686,-44.6396 269.202,-36.2605 269.045,-46.8541 275.686,-44.6396"/>
</g>
<!-- frontend&#45;&gt;logger -->
<g id="edge11" class="edge"><title>frontend&#45;&gt;logger</title>
<path fill="none" stroke="black" stroke-width="2" d="M205.361,-71.6966C214.872,-63.0503 226.533,-52.4486 236.897,-43.027"/>
<polygon fill="black" stroke="black" stroke-width="2" points="239.467,-45.4209 244.512,-36.1043 234.758,-40.2413 239.467,-45.4209"/>
</g>
<!-- mongo -->
<g id="node8" class="node"><title>mongo</title>
<path fill="#43a047" stroke="#1b5e20" d="M356.327,-396C356.327,-396 288.327,-396 288.327,-396 282.327,-396 276.327,-390 276.327,-384 276.327,-384 276.327,-372 276.327,-372 276.327,-366 282.327,-360 288.327,-360 288.327,-360 356.327,-360 356.327,-360 362.327,-360 368.327,-366 368.327,-372 368.327,-372 368.327,-384 368.327,-384 368.327,-390 362.327,-396 356.327,-396"/>
<text text-anchor="middle" x="322.327" y="-374.9" font-family="Arial" font-size="12.00" fill="white">unicnet.mongo</text>
</g>
<!-- mongo&#45;&gt;vault -->
<g id="edge12" class="edge"><title>mongo&#45;&gt;vault</title>
<path fill="none" stroke="black" stroke-width="2" d="M305.023,-359.697C296.462,-351.135 285.983,-340.656 276.631,-331.304"/>
<polygon fill="black" stroke="black" stroke-width="2" points="278.977,-328.701 269.431,-324.104 274.027,-333.65 278.977,-328.701"/>
</g>
<!-- mongo&#45;&gt;syslog -->
<g id="edge13" class="edge"><title>mongo&#45;&gt;syslog</title>
<path fill="none" stroke="black" stroke-width="2" d="M322.327,-359.871C322.327,-335.67 322.327,-291.211 322.327,-262.393"/>
<polygon fill="black" stroke="black" stroke-width="2" points="325.827,-262.189 322.327,-252.189 318.827,-262.189 325.827,-262.189"/>
</g>
<!-- mongo&#45;&gt;logger -->
<g id="edge7" class="edge"><title>mongo&#45;&gt;logger</title>
<path fill="none" stroke="black" stroke-width="2" d="M338.167,-359.655C359.637,-334.273 395.327,-284.618 395.327,-235 395.327,-235 395.327,-235 395.327,-161 395.327,-107.403 344.257,-65.5426 305.648,-41.5546"/>
<polygon fill="black" stroke="black" stroke-width="2" points="307.009,-38.2887 296.636,-36.1331 303.401,-44.287 307.009,-38.2887"/>
</g>
</g>
</svg>
